# xmcd
#
# Track frame offsets:
#	150
#	15432
#	30699
#	48560
#	65573
#	83234
#	93961
#	109678
#	124733
#	142837
#
# Disc length: 2312 seconds
# Revision: 0
# Processed by: cddbd v1.5.2PL0 Copyright (c) Steve Scherf et al.
# Submitted via: dBpowerAMP V12.0
#
DISCID=7a09060a
DTITLE=Carter Sampson and Hidden Agenda Deluxe - Christmas from Amsterdam to Oklahoma
DYEAR=2016
DGENRE=Americana
TTITLE0=I'll Be Home for Christmas
TTITLE1=Coming Around
TTITLE2=For Saviour's Sake
TTITLE3=Driving Home for Christmas
TTITLE4=Hard Candy Christmas
TTITLE5=Snow
TTITLE6=Blue Christmas
TTITLE7=Christmas in Oklahoma
TTITLE8=I Shall be Released
TTITLE9=Christmas Eve in Amsterdam
EXTD=
EXTT0=
EXTT1=
EXTT2=
EXTT3=
EXTT4=
EXTT5=
EXTT6=
EXTT7=
EXTT8=
EXTT9=
PLAYORDER=
